<?xml version="1.0" encoding="UTF-8"?>
<svg width="128" height="128" viewBox="0 0 128 128" fill="none" xmlns="http://www.w3.org/2000/svg">
  <defs>
    <linearGradient id="bg" x1="14" y1="10" x2="115" y2="118" gradientUnits="userSpaceOnUse">
      <stop stop-color="#0B1023"/>
      <stop offset="0.55" stop-color="#13234B"/>
      <stop offset="1" stop-color="#350D40"/>
    </linearGradient>
    <radialGradient id="glow" cx="0" cy="0" r="1" gradientUnits="userSpaceOnUse" gradientTransform="translate(94 26) rotate(134.804) scale(83.9878)">
      <stop stop-color="#49FFF2" stop-opacity="0.7"/>
      <stop offset="1" stop-color="#49FFF2" stop-opacity="0"/>
    </radialGradient>
    <radialGradient id="glow2" cx="0" cy="0" r="1" gradientUnits="userSpaceOnUse" gradientTransform="translate(38 104) rotate(-42.315) scale(62.1182)">
      <stop stop-color="#FF50D8" stop-opacity="0.38"/>
      <stop offset="1" stop-color="#FF50D8" stop-opacity="0"/>
    </radialGradient>
  </defs>
  <rect x="6" y="6" width="116" height="116" rx="28" fill="url(#bg)"/>
  <rect x="6.75" y="6.75" width="114.5" height="114.5" rx="27.25" stroke="#55FFF2" stroke-opacity="0.28" stroke-width="1.5"/>
  <circle cx="94" cy="26" r="34" fill="url(#glow)"/>
  <circle cx="38" cy="104" r="26" fill="url(#glow2)"/>
  <path d="M32 84V48.735C32 43.9087 35.8937 40 40.6994 40H45.3836C49.016 40 52.324 41.9992 53.9952 45.1966L59.5 55.7225L65.0048 45.1966C66.676 41.9992 69.984 40 73.6164 40H78.3006C83.1063 40 87 43.9087 87 48.735V84H76.5876V55.6683L68.2967 72.3228H50.7033L42.4124 55.6683V84H32Z" fill="#EEF8FF"/>
  <circle cx="92" cy="38" r="7" fill="#4BFFF0"/>
</svg>
