<svg width="404" height="96" viewBox="0 0 404 96" fill="none" xmlns="http://www.w3.org/2000/svg">
  <rect width="96" height="96" rx="28" fill="#0D1722"/>
  <rect x="10" y="10" width="76" height="76" rx="22" fill="url(#paint0_linear_1_2)" />
  <path d="M28 63.5V31h8.3l11.7 18.4L59.8 31H68v32.5h-7.9V43.9L49 61.1h-2L35.9 43.9v19.6H28Z" fill="#071018"/>
  <path d="M124 66V30H138.8C149.8 30 156.7 36.9 156.7 47.9C156.7 59.1 149.8 66 138.8 66H124ZM131.7 59.6H138.5C145.2 59.6 148.8 55.3 148.8 47.9C148.8 40.7 145.2 36.4 138.5 36.4H131.7V59.6Z" fill="#EFF6FF"/>
  <path d="M180.7 66.9C171.6 66.9 164.9 60.7 164.9 51.6C164.9 42.5 171.7 36.3 180.7 36.3C189.7 36.3 196.5 42.5 196.5 51.6C196.5 60.7 189.7 66.9 180.7 66.9ZM180.7 60.7C185.2 60.7 188.7 57.2 188.7 51.6C188.7 46.1 185.2 42.5 180.7 42.5C176.1 42.5 172.7 46.1 172.7 51.6C172.7 57.2 176.1 60.7 180.7 60.7Z" fill="#EFF6FF"/>
  <path d="M203.8 66V37.2H211.1L211.7 41.1C214.1 38 217.8 36.3 222.5 36.3C229.8 36.3 234.6 41.1 234.6 49.1V66H226.8V50.7C226.8 45.4 224.4 42.8 219.9 42.8C215.2 42.8 211.6 46 211.6 51.8V66H203.8Z" fill="#EFF6FF"/>
  <path d="M253.5 66.9C247.2 66.9 242.7 63.6 242.7 58C242.7 52.7 247.1 49.7 254.4 48.8L263.5 47.7V46.9C263.5 43.5 261.2 41.7 257.2 41.7C253.2 41.7 250.9 43.2 250.2 46.2H243.1C243.9 40 249.2 36.3 257.2 36.3C266 36.3 271.1 40.2 271.1 47.7V66H264L263.7 61.8C261.5 65 258.2 66.9 253.5 66.9ZM255.8 61.1C260.6 61.1 263.5 58.1 263.5 53.7V52.7L256.4 53.6C252.8 54 250.8 55.4 250.8 57.8C250.8 60 252.7 61.1 255.8 61.1Z" fill="#EFF6FF"/>
  <path d="M281.2 66V30H289V66H281.2Z" fill="#EFF6FF"/>
  <path d="M300.3 35.1C297.6 35.1 295.6 33.1 295.6 30.5C295.6 27.8 297.6 25.8 300.3 25.8C302.9 25.8 305 27.8 305 30.5C305 33.1 302.9 35.1 300.3 35.1ZM296.3 66V37.2H304.1V66H296.3Z" fill="#EFF6FF"/>
  <path d="M323.3 66.9C317 66.9 312.5 63.6 312.5 58C312.5 52.7 316.9 49.7 324.2 48.8L333.3 47.7V46.9C333.3 43.5 331 41.7 327 41.7C323 41.7 320.7 43.2 320 46.2H312.9C313.7 40 319 36.3 327 36.3C335.8 36.3 340.9 40.2 340.9 47.7V66H333.8L333.5 61.8C331.3 65 328 66.9 323.3 66.9ZM325.6 61.1C330.4 61.1 333.3 58.1 333.3 53.7V52.7L326.2 53.6C322.6 54 320.6 55.4 320.6 57.8C320.6 60 322.5 61.1 325.6 61.1Z" fill="#EFF6FF"/>
  <defs>
    <linearGradient id="paint0_linear_1_2" x1="86" y1="10" x2="10" y2="86" gradientUnits="userSpaceOnUse">
      <stop stop-color="#4FD1C5"/>
      <stop offset="1" stop-color="#F97316"/>
    </linearGradient>
  </defs>
</svg>
