<svg width="1280" height="900" viewBox="0 0 1280 900" fill="none" xmlns="http://www.w3.org/2000/svg">
  <rect width="1280" height="900" rx="36" fill="#071018"/>
  <rect x="28" y="28" width="1224" height="844" rx="28" fill="#0C1621"/>
  <rect x="60" y="60" width="220" height="780" rx="24" fill="#101D2B"/>
  <rect x="86" y="94" width="168" height="44" rx="18" fill="#132434"/>
  <rect x="86" y="162" width="168" height="54" rx="18" fill="#173148"/>
  <rect x="104" y="180" width="96" height="12" rx="6" fill="#E2E8F0"/>
  <rect x="86" y="236" width="168" height="54" rx="18" fill="#132434"/>
  <rect x="104" y="254" width="112" height="12" rx="6" fill="#84A2C1"/>
  <rect x="86" y="310" width="168" height="54" rx="18" fill="#132434"/>
  <rect x="104" y="328" width="84" height="12" rx="6" fill="#84A2C1"/>
  <rect x="312" y="60" width="908" height="90" rx="24" fill="#101D2B"/>
  <rect x="344" y="92" width="180" height="14" rx="7" fill="#7DD3FC"/>
  <rect x="344" y="118" width="256" height="10" rx="5" fill="#5F7286"/>
  <rect x="1030" y="82" width="154" height="42" rx="18" fill="#132434"/>
  <rect x="312" y="176" width="332" height="628" rx="24" fill="#0F1B28"/>
  <rect x="664" y="176" width="556" height="628" rx="24" fill="#0B131D"/>
  <rect x="346" y="212" width="264" height="48" rx="16" fill="#132434"/>
  <rect x="366" y="230" width="118" height="12" rx="6" fill="#E2E8F0"/>
  <rect x="346" y="278" width="264" height="48" rx="16" fill="#132434"/>
  <rect x="366" y="296" width="144" height="12" rx="6" fill="#84A2C1"/>
  <rect x="346" y="344" width="264" height="48" rx="16" fill="#173148"/>
  <rect x="366" y="362" width="98" height="12" rx="6" fill="#D8F3FF"/>
  <rect x="346" y="410" width="264" height="48" rx="16" fill="#132434"/>
  <rect x="366" y="428" width="166" height="12" rx="6" fill="#84A2C1"/>
  <rect x="700" y="214" width="484" height="60" rx="18" fill="#101D2B"/>
  <rect x="734" y="238" width="126" height="12" rx="6" fill="#E2E8F0"/>
  <rect x="700" y="298" width="484" height="272" rx="22" fill="#11324A"/>
  <rect x="736" y="338" width="210" height="14" rx="7" fill="#E2E8F0"/>
  <rect x="736" y="368" width="312" height="10" rx="5" fill="#A8C4DB"/>
  <rect x="736" y="392" width="266" height="10" rx="5" fill="#A8C4DB"/>
  <rect x="736" y="416" width="338" height="10" rx="5" fill="#A8C4DB"/>
  <rect x="700" y="592" width="484" height="176" rx="22" fill="#101D2B"/>
  <rect x="734" y="626" width="144" height="34" rx="17" fill="#132434"/>
  <rect x="892" y="626" width="144" height="34" rx="17" fill="#132434"/>
  <rect x="1050" y="626" width="98" height="34" rx="17" fill="#4FD1C5"/>
  <rect x="734" y="682" width="338" height="12" rx="6" fill="#5F7286"/>
  <rect x="734" y="708" width="278" height="12" rx="6" fill="#5F7286"/>
</svg>
