<svg width="1280" height="900" viewBox="0 0 1280 900" fill="none" xmlns="http://www.w3.org/2000/svg">
  <rect width="1280" height="900" rx="36" fill="#071018"/>
  <rect x="28" y="28" width="1224" height="844" rx="28" fill="#0C1621"/>
  <rect x="80" y="80" width="560" height="742" rx="24" fill="#0A131D"/>
  <rect x="680" y="80" width="520" height="742" rx="28" fill="#111F2D"/>
  <rect x="718" y="118" width="268" height="18" rx="9" fill="#E2E8F0"/>
  <rect x="718" y="148" width="344" height="12" rx="6" fill="#70849C"/>
  <rect x="718" y="190" width="444" height="60" rx="24" fill="#0E1823"/>
  <rect x="736" y="206" width="92" height="28" rx="14" fill="#173148"/>
  <rect x="844" y="206" width="104" height="28" rx="14" fill="#173148"/>
  <rect x="964" y="206" width="110" height="28" rx="14" fill="#173148"/>
  <rect x="1090" y="206" width="72" height="28" rx="14" fill="#173148"/>
  <rect x="718" y="278" width="444" height="176" rx="24" fill="#132434"/>
  <rect x="752" y="314" width="160" height="14" rx="7" fill="#E2E8F0"/>
  <rect x="752" y="342" width="356" height="12" rx="6" fill="#84A2C1"/>
  <rect x="752" y="374" width="320" height="48" rx="16" fill="#0E1823"/>
  <rect x="718" y="478" width="444" height="132" rx="24" fill="#132434"/>
  <rect x="752" y="514" width="150" height="14" rx="7" fill="#E2E8F0"/>
  <rect x="752" y="542" width="280" height="12" rx="6" fill="#84A2C1"/>
  <rect x="752" y="572" width="112" height="18" rx="9" fill="#4FD1C5"/>
  <rect x="718" y="634" width="444" height="132" rx="24" fill="#132434"/>
  <rect x="752" y="670" width="150" height="14" rx="7" fill="#E2E8F0"/>
  <rect x="752" y="698" width="280" height="12" rx="6" fill="#84A2C1"/>
  <rect x="1016" y="686" width="112" height="44" rx="22" fill="#F97316"/>
</svg>
