<svg width="1280" height="900" viewBox="0 0 1280 900" fill="none" xmlns="http://www.w3.org/2000/svg">
  <rect width="1280" height="900" rx="36" fill="#071018"/>
  <rect x="28" y="28" width="1224" height="844" rx="28" fill="#0C1621"/>
  <rect x="60" y="60" width="248" height="780" rx="24" fill="#101D2B"/>
  <rect x="88" y="98" width="192" height="48" rx="18" fill="#22D3EE"/>
  <rect x="88" y="182" width="192" height="82" rx="18" fill="#132434"/>
  <rect x="88" y="280" width="192" height="82" rx="18" fill="#132434"/>
  <rect x="88" y="378" width="192" height="82" rx="18" fill="#173148"/>
  <rect x="340" y="60" width="880" height="98" rx="24" fill="#101D2B"/>
  <rect x="374" y="96" width="238" height="18" rx="9" fill="#E2E8F0"/>
  <rect x="374" y="124" width="320" height="12" rx="6" fill="#5F7286"/>
  <rect x="340" y="184" width="880" height="452" rx="24" fill="#0B131D"/>
  <rect x="380" y="224" width="356" height="132" rx="20" fill="#14283A"/>
  <rect x="414" y="256" width="220" height="16" rx="8" fill="#E2E8F0"/>
  <rect x="414" y="286" width="270" height="12" rx="6" fill="#68809A"/>
  <rect x="414" y="310" width="236" height="12" rx="6" fill="#68809A"/>
  <rect x="788" y="396" width="392" height="144" rx="20" fill="#11324A"/>
  <rect x="824" y="430" width="210" height="16" rx="8" fill="#E2E8F0"/>
  <rect x="824" y="460" width="300" height="12" rx="6" fill="#84A2C1"/>
  <rect x="824" y="484" width="260" height="12" rx="6" fill="#84A2C1"/>
  <rect x="340" y="664" width="880" height="140" rx="24" fill="#101D2B"/>
  <rect x="376" y="702" width="178" height="38" rx="19" fill="#132434"/>
  <rect x="570" y="702" width="178" height="38" rx="19" fill="#132434"/>
  <rect x="764" y="702" width="178" height="38" rx="19" fill="#132434"/>
  <rect x="376" y="754" width="672" height="18" rx="9" fill="#5F7286"/>
  <rect x="1084" y="738" width="104" height="42" rx="21" fill="#4FD1C5"/>
</svg>
